<?xml version="1.0" encoding="UTF-8"?><svg id="Layer_2" xmlns="http://www.w3.org/2000/svg" viewBox="0 0 2935 1429.78"><defs><style>.cls-1{fill:#ffb9c6;}</style></defs><g id="_Слой_1"><g><g><polygon class="cls-1" points="2935 3.83 2935 1425.53 2228.4 714.68 2935 3.83"/><polygon class="cls-1" points="0 3.83 0 1425.53 706.6 714.68 0 3.83"/></g><path class="cls-1" d="M2022.44,1204.92c16.23-34.66,32.25-65.33,45.26-97.23,61.42-150.61,84.31-305.66,42.5-465.12-44.2-168.6-146.71-293.37-298.87-377-89.09-48.96-184.12-80.21-286.68-82.84-155.68-4-270.55,66.69-349.31,197.73-49.76,82.79-67.72,174.05-51.01,269.24,21.13,120.33,88.66,210.62,191.98,274.35,25.93,15.99,63.42,5,79.78-21,18.05-28.7,11.04-65.26-17.75-84.19-33.83-22.25-63.8-48.27-86.97-81.62-63.73-91.75-65.76-188.64-15.34-284.85,51.64-98.53,135.25-155.24,248.72-145.33,207,18.08,363.64,115.72,448.49,310.94,39.29,90.39,42.05,186.58,26.04,282.98-22.86,137.6-79.57,259.6-174.22,362.59-96.92,105.45-221.09,152.96-361.17,163.84-101.87,7.91-201.96-4.02-298.26-37.52-63.13-21.96-118.58-59.77-168.94-103.4-201.32-174.4-288.9-394.81-260.8-659.65,11.45-107.95,49.08-207.72,106.73-299.79,.49-.78,1.68-1.13,.1-.13-12.71,41.28-29.4,83.94-38.83,128.15-37.79,177.09-22.49,347.59,76.24,503.7,84.98,134.36,209.39,217.39,359.85,263.45,78.09,23.91,157.58,34.68,238.63,18.78,120.44-23.62,206.91-94.18,266.51-199.06,39.48-69.48,56.24-145.19,50.11-224.83-9.44-122.62-72.19-215.13-168.61-286.81-20.53-15.27-43.71-27.28-66.56-39.04-28.73-14.79-64.84-3.3-80.33,23.9-16.83,29.56-7.95,65.09,21.04,83.49,25.38,16.12,53.46,29.09,75.86,48.6,96.87,84.32,121.2,189.98,75.32,306.01-44.75,113.19-149.38,181.71-269.73,169.85-187.91-18.5-335.24-105.31-425.15-275.81-48.11-91.23-57.52-190.29-44.95-291.5,18.32-147.42,76.62-277.34,176.28-387.62,90.12-99.72,206.09-148.24,337.48-163.29,112.96-12.94,223.95-.15,330.91,36.53,64.52,22.13,122.19,59.91,174.27,104.29,216.23,184.27,304.92,417.77,263.18,698.57-19.71,132.64-77.52,249.52-163.54,352.35-1.69,2.02-3.74,3.75-8.3,8.26Z"/></g></g></svg>