<?xml version="1.0" encoding="UTF-8"?><svg id="Layer_2" xmlns="http://www.w3.org/2000/svg" viewBox="0 0 2841.92 376.25"><defs><style>.cls-1{fill:#fff;}.cls-2{fill:#ffb9c6;}</style></defs><g id="_Слой_1"><g><path class="cls-1" d="M725.08,187.21c-6.92-8.12-15.09-14.14-24.56-18-9.46-3.89-21.48-7.64-36.01-11.28-14.34-3.64-24.89-7.22-31.67-10.75-6.8-3.5-10.19-8.65-10.19-15.46,0-6.05,2.49-10.78,7.45-14.2,4.98-3.39,12.07-5.1,21.31-5.1,9.94,0,17.86,2.38,23.83,7.11,5.94,4.73,9.27,11.09,10,19.1h48.78c-1.46-20.38-9.35-36.57-23.66-48.58-14.31-12.01-33.49-18-57.49-18-16.27,0-30.38,2.66-42.39,8.01-12.01,5.32-21.22,12.6-27.67,21.81-6.44,9.24-9.63,19.43-9.63,30.58,0,13.58,3.44,24.39,10.36,32.4,6.92,8.01,15.15,13.94,24.75,17.81,9.58,3.89,21.9,7.64,36.93,11.28,14.56,3.89,25.14,7.48,31.84,10.75,6.66,3.28,10,8.18,10,14.73,0,6.08-2.72,11.03-8.18,14.92-5.46,3.86-13.05,5.82-22.74,5.82s-18.26-2.55-24.92-7.64c-6.69-5.1-10.5-11.54-11.48-19.29h-51.3c.73,12.38,4.9,23.66,12.54,33.85,7.64,10.16,18,18.26,31.11,24.19,13.1,5.94,27.89,8.9,44.41,8.9s30.02-2.6,42.03-7.81c11.98-5.21,21.22-12.43,27.64-21.64,6.44-9.24,9.66-19.66,9.66-31.31-.25-13.33-3.84-24.08-10.75-32.2Z"/><path class="cls-1" d="M898.46,75.32v110.97c0,16.02-4,28.34-11.98,36.93-8.01,8.62-19.07,12.94-33.12,12.94s-24.75-4.31-32.76-12.94c-7.98-8.6-11.98-20.92-11.98-36.93V75.32h-50.96v118.25c0,17.95,3.47,33.43,10.39,46.4,6.92,12.99,16.41,22.82,28.56,29.48,12.12,6.66,26.07,10,41.83,10,12.38,0,23.83-2.49,34.39-7.45,10.56-4.98,19.12-11.84,25.65-20.58v25.48h51.33V75.32h-51.33Z"/><path class="cls-1" d="M1127.34,75.32v28.73c-6.55-9.44-15.51-17.14-26.91-23.1-11.42-5.94-24.64-8.9-39.68-8.9-17.22,0-32.82,4.26-46.76,12.74-13.94,8.48-24.98,20.61-33.1,36.37-8.15,15.76-12.21,33.85-12.21,54.21s4.06,38.89,12.21,54.77c8.12,15.9,19.21,28.2,33.29,36.93,14.06,8.74,29.6,13.1,46.57,13.1,14.81,0,27.97-3.16,39.48-9.46,11.54-6.3,20.55-14.2,27.1-23.63v31.28c0,17.95-4.59,31.36-13.8,40.21-9.24,8.85-21.25,13.27-36.04,13.27-12.6,0-23.35-2.72-32.2-8.18-8.85-5.46-14.62-12.8-17.28-22.01h-50.6c2.44,23.04,12.8,41.25,31.14,54.57,18.31,13.33,41.78,20.02,70.39,20.02,21.34,0,39.54-4.31,54.57-12.94,15.04-8.6,26.32-20.24,33.85-34.92,7.5-14.67,11.28-31.36,11.28-50.04V75.32h-51.33Zm-7.25,132.64c-4.87,8.85-11.42,15.62-19.66,20.36-8.26,4.73-17.11,7.11-26.57,7.11s-17.89-2.44-26.01-7.28c-8.12-4.84-14.67-11.84-19.66-20.92-4.96-9.1-7.45-19.71-7.45-31.87s2.49-22.6,7.45-31.47c4.98-8.85,11.48-15.57,19.46-20.19,8.01-4.59,16.74-6.92,26.21-6.92s18.31,2.38,26.57,7.11c8.23,4.73,14.78,11.51,19.66,20.36,4.84,8.88,7.25,19.49,7.25,31.84s-2.41,22.99-7.25,31.87Z"/><path class="cls-1" d="M1355.85,75.32v28.73c-6.78-9.21-15.82-16.86-27.1-22.9-11.28-6.08-24.44-9.1-39.48-9.1-17.22,0-32.82,4.26-46.76,12.74-13.94,8.48-24.98,20.61-33.1,36.37-8.15,15.76-12.21,33.85-12.21,54.21s4.06,38.89,12.21,54.77c8.12,15.9,19.15,28.2,33.1,36.93,13.94,8.74,29.43,13.1,46.4,13.1,15.04,0,28.34-3.08,39.85-9.27,11.54-6.19,20.55-14.03,27.1-23.46v29.46h51.33V75.32h-51.33Zm-7.28,132.64c-4.84,8.85-11.4,15.62-19.63,20.36-8.26,4.73-17.11,7.11-26.57,7.11s-17.89-2.44-26.01-7.28c-8.12-4.84-14.67-11.84-19.66-20.92-4.98-9.1-7.45-19.71-7.45-31.87s2.46-22.6,7.45-31.47c4.98-8.85,11.45-15.57,19.46-20.19,8.01-4.59,16.74-6.92,26.21-6.92s18.31,2.38,26.57,7.11c8.23,4.73,14.78,11.51,19.63,20.36,4.87,8.88,7.28,19.49,7.28,31.84s-2.41,22.99-7.28,31.87Z"/><path class="cls-1" d="M1515.43,81.51c-10.56,6.05-19.12,14.42-25.68,25.09v-31.28h-50.93v201.58h50.93v-100.44c0-18.68,4.06-31.75,12.21-39.29,8.12-7.5,20.19-8.48,36.21-8.48h13.47v-53.48c-13.61,0-25.68,.22-36.21,6.3Z"/><path class="cls-1" d="M1703.91,193.21c-6.44-7.5-14.14-13.16-23.1-16.91-8.99-3.75-20.64-7.59-34.95-11.45-11.4-3.16-20.3-6.02-26.74-8.57-6.44-2.55-11.76-5.94-16.02-10.19s-6.36-9.63-6.36-16.18c0-8.23,3.5-14.92,10.56-20.02,7.03-5.1,16.49-7.64,28.36-7.64,12.85,0,23.13,3.16,30.77,9.46,7.62,6.33,11.82,14.7,12.54,25.12h33.1c-.95-19.4-8.23-34.69-21.81-45.84-13.61-11.17-31.42-16.74-53.51-16.74-14.31,0-27.05,2.49-38.19,7.45-11.17,4.98-19.77,11.7-25.84,20.19-6.05,8.51-9.1,17.84-9.1,28.03,0,12.85,3.33,23.24,10.02,31.11,6.66,7.9,14.67,13.83,24,17.84,9.35,4,21.42,7.95,36.21,11.82,16.27,4.14,28.28,8.32,36.04,12.57,7.76,4.23,11.65,10.72,11.65,19.46s-3.64,15.51-10.92,21.11c-7.28,5.57-17.22,8.34-29.85,8.34-13.58,0-24.56-3.14-32.93-9.44-8.37-6.33-13.05-14.45-14-24.39h-34.22c.73,12.12,4.62,22.88,11.65,32.2,7.03,9.35,16.63,16.63,28.76,21.84,12.12,5.21,25.84,7.81,41.11,7.81,14.31,0,26.99-2.49,38.03-7.45,11.03-4.98,19.6-11.84,25.68-20.58,6.05-8.71,9.07-18.54,9.07-29.46-.22-12.12-3.56-21.95-10-29.49Z"/><path class="cls-1" d="M1924.22,169.57c0-18.2-3.92-34.53-11.82-48.95-7.9-14.45-19.1-25.79-33.66-34.02-14.56-8.26-31.3-12.38-50.21-12.38s-36.57,4.17-51.49,12.54c-14.92,8.37-26.52,20.33-34.75,35.84-8.26,15.54-12.38,33.6-12.38,54.21s4.23,38.78,12.74,54.41c8.48,15.65,20.19,27.72,35.11,36.21,14.92,8.51,31.84,12.74,50.77,12.74,23.77,0,43.65-5.99,59.67-18,16.02-12.01,26.69-27.61,32.01-46.76h-35.65c-3.89,11.17-10.61,20.08-20.19,26.74-9.6,6.69-21.53,10-35.84,10-17.47,0-32.34-5.52-44.58-16.55-12.26-11.03-18.98-26.38-20.19-46.03h159.38c.7-7.03,1.06-13.69,1.06-19.99Zm-160.08-6.92c1.68-18.93,8.4-33.71,20.19-44.41,11.76-10.67,26.01-16.02,42.76-16.02,11.65,0,22.23,2.38,31.84,7.11,9.58,4.73,17.16,11.65,22.74,20.75,5.57,9.07,8.37,19.94,8.37,32.57h-125.89Z"/><path class="cls-1" d="M2070.86,241.98c-9.69,6.78-21.81,10.16-36.37,10.16-18.93,0-34.22-6.52-45.84-19.63-11.65-13.1-17.47-31.67-17.47-55.69s5.82-42.14,17.47-55.11c11.62-12.99,26.91-19.49,45.84-19.49,14.56,0,26.74,3.53,36.57,10.56,9.83,7.06,16.44,16.63,19.82,28.76h35.67c-5.1-21.11-15.6-37.61-31.47-49.48-15.9-11.9-36.09-17.84-60.59-17.84-18.93,0-35.73,4.23-50.4,12.74-14.67,8.48-26.15,20.44-34.39,35.84-8.23,15.4-12.38,33.41-12.38,54.01s4.14,39.06,12.38,54.6c8.23,15.51,19.71,27.52,34.39,36.01,14.67,8.51,31.47,12.74,50.4,12.74,24.02,0,44.02-6.13,60.03-18.37,16.02-12.26,26.68-28.56,32.03-48.95h-35.67c-3.64,12.63-10.3,22.32-20.02,29.12Z"/><path class="cls-1" d="M2296.13,77.51v109.51c0,20.89-5.1,36.77-15.29,47.69-10.19,10.92-24.14,16.35-41.86,16.35s-30.8-5.26-40.74-15.82c-9.97-10.56-14.92-25.65-14.92-45.31V77.51h-32.76v116.79c0,18.45,3.58,34.11,10.75,46.96,7.14,12.85,16.91,22.48,29.29,28.93,12.38,6.41,26.32,9.63,41.83,9.63,13.58,0,26.01-2.86,37.3-8.54,11.28-5.71,20.08-13.66,26.41-23.83v29.46h33.1V77.51h-33.1Z"/><path class="cls-1" d="M2425.1,83.33c-10.78,6.3-19.1,15.15-24.92,26.54v-32.37h-33.1v199.39h33.1v-108.42c0-40.27,18.56-57.63,55.67-57.63h8.74v-34.19c-15.51,0-28.67,.36-39.48,6.66Z"/><path class="cls-1" d="M2484.6,77.51v199.39h33.1V77.51h-33.1Zm32.56-70.95c-4.26-4.37-9.41-6.55-15.46-6.55s-11.65,2.18-16.02,6.55c-4.37,4.37-6.55,9.69-6.55,16.02s2.18,11.62,6.55,15.99c4.37,4.37,9.69,6.55,16.02,6.55s11.2-2.18,15.46-6.55c4.23-4.37,6.36-9.69,6.36-15.99s-2.13-11.65-6.36-16.02Z"/><path class="cls-1" d="M2623.96,248.9c-10.19,0-17.36-2.02-21.48-6.02-4.12-4-6.19-10.84-6.19-20.55V104.78h41.75l-11.12-27.27h-30.63V27.27h-33.1v50.23h-25.84v27.27h25.84v117.55c0,19.4,4.59,33.35,13.8,41.83,9.24,8.51,23.04,12.74,41.5,12.74h29.85v-28h-24.39Z"/><polygon class="cls-1" points="2841.92 77.51 2721.85 370.79 2687.64 370.79 2726.95 274.72 2648.35 81.96 2646.53 77.51 2683.27 77.51 2745.85 239.07 2807.71 77.51 2841.92 77.51"/><g><polygon class="cls-2" points="506.87 53.35 506.87 298.87 384.84 176.11 506.87 53.35"/><polygon class="cls-2" points="0 53.35 0 298.87 122.03 176.11 0 53.35"/></g><path class="cls-2" d="M349.27,260.78c2.8-5.99,5.57-11.28,7.82-16.79,10.61-26.01,14.56-52.79,7.34-80.33-7.63-29.12-25.34-50.67-51.61-65.11-15.38-8.45-31.8-13.85-49.51-14.31-26.89-.69-46.72,11.52-60.32,34.15-8.59,14.3-11.7,30.06-8.81,46.5,3.65,20.78,15.31,36.37,33.15,47.38,4.48,2.76,10.95,.86,13.78-3.63,3.12-4.96,1.91-11.27-3.07-14.54-5.84-3.84-11.02-8.34-15.02-14.09-11.01-15.84-11.36-32.58-2.65-49.19,8.92-17.02,23.36-26.81,42.95-25.1,35.75,3.12,62.8,19.98,77.45,53.7,6.79,15.61,7.26,32.22,4.5,48.87-3.95,23.76-13.74,44.83-30.09,62.62-16.74,18.21-38.18,26.42-62.37,28.29-17.59,1.37-34.88-.69-51.51-6.48-10.9-3.79-20.48-10.32-29.18-17.86-34.77-30.12-49.89-68.18-45.04-113.92,1.98-18.64,8.48-35.87,18.43-51.77,.08-.14,.29-.2,.02-.02-2.2,7.13-5.08,14.5-6.71,22.13-6.53,30.58-3.88,60.03,13.17,86.99,14.68,23.2,36.16,37.54,62.15,45.5,13.49,4.13,27.21,5.99,41.21,3.24,20.8-4.08,35.73-16.26,46.03-34.38,6.82-12,9.71-25.07,8.65-38.83-1.63-21.18-12.47-37.15-29.12-49.53-3.55-2.64-7.55-4.71-11.5-6.74-4.96-2.55-11.2-.57-13.87,4.13-2.91,5.11-1.37,11.24,3.63,14.42,4.38,2.78,9.23,5.02,13.1,8.39,16.73,14.56,20.93,32.81,13.01,52.85-7.73,19.55-25.8,31.38-46.58,29.33-32.45-3.2-57.9-18.19-73.42-47.63-8.31-15.76-9.93-32.86-7.76-50.34,3.16-25.46,13.23-47.9,30.44-66.94,15.56-17.22,35.59-25.6,58.28-28.2,19.51-2.23,38.68-.03,57.15,6.31,11.14,3.82,21.1,10.35,30.1,18.01,37.34,31.82,52.66,72.15,45.45,120.64-3.4,22.91-13.39,43.09-28.24,60.85-.29,.35-.65,.65-1.43,1.43Z"/></g></g></svg>